<?xml version="1.0" standalone="no"?>
<!DOCTYPE svg PUBLIC "-//W3C//DTD SVG 20010904//EN"
 "http://www.w3.org/TR/2001/REC-SVG-20010904/DTD/svg10.dtd">
<svg version="1.0" xmlns="http://www.w3.org/2000/svg"
 width="500.000000pt" height="500.000000pt" viewBox="0 0 500.000000 500.000000"
 preserveAspectRatio="xMidYMid meet">
<metadata>
Created by potrace 1.11, written by Peter Selinger 2001-2013
</metadata>
<g transform="translate(0.000000,500.000000) scale(0.100000,-0.100000)"
fill="#000000" stroke="none">
<path d="M560 4990 c-142 -18 -255 -74 -366 -185 -66 -65 -89 -96 -122 -165
-22 -47 -46 -110 -53 -140 -21 -82 -21 -3918 0 -4000 44 -182 179 -351 341
-428 47 -22 110 -46 140 -53 82 -21 3918 -21 4000 0 182 44 351 179 428 341
22 47 46 110 53 140 21 82 21 3918 0 4000 -55 225 -230 406 -461 477 -51 16
-202 18 -1975 19 -1056 1 -1949 -2 -1985 -6z m510 -2183 c0 -579 2 -602 51
-698 11 -23 41 -61 65 -86 155 -155 481 -146 628 18 50 55 80 126 96 221 6 37
10 275 10 576 l0 512 151 0 151 0 -4 -567 c-4 -544 -6 -571 -26 -647 -54 -198
-149 -320 -312 -401 -197 -99 -521 -107 -735 -18 -59 25 -166 96 -201 134 -45
49 -98 135 -123 202 -46 126 -51 193 -51 763 l0 534 150 0 150 0 0 -543z
m1790 -292 l0 -835 -145 0 -145 0 0 835 0 835 145 0 145 0 0 -835z m1091 382
c81 -26 147 -66 211 -126 l63 -59 -30 -32 c-16 -18 -56 -55 -88 -82 l-58 -51
-29 34 c-61 75 -193 117 -307 99 -172 -28 -289 -165 -300 -353 -12 -188 58
-330 199 -404 48 -25 62 -28 158 -28 97 0 109 2 158 29 29 17 69 47 88 69 l35
38 82 -77 c45 -43 83 -81 85 -85 6 -13 -68 -87 -122 -123 -29 -19 -89 -48
-132 -63 -69 -24 -94 -27 -199 -27 -87 0 -136 5 -179 18 -205 62 -345 195
-412 391 -36 106 -44 267 -20 379 51 229 231 410 457 461 79 18 273 13 340 -8z"/>
</g>
</svg>
